<svg xmlns="http://www.w3.org/2000/svg" viewBox="0 0 2006.68 2040.14"><defs><style>.cls-1{fill:#89c8a8;}.cls-1,.cls-2,.cls-3,.cls-4,.cls-5,.cls-6,.cls-7,.cls-8{stroke:#fff;stroke-miterlimit:10;stroke-width:9.44px;}.cls-2{fill:#f6a3b2;}.cls-3{fill:#ffcb56;}.cls-4{fill:#376771;}.cls-5{fill:#019492;}.cls-6{fill:#81ccd4;}.cls-7{fill:#f26f67;}.cls-8{fill:#f04e26;}.cls-9{fill:#366772;}</style></defs><title>CLCsAPortraitLogo</title><g id="Layer_1" data-name="Layer 1"><polyline class="cls-1" points="1000.16 401.88 782.63 312.53 375.31 482.68 207.32 891.69 333.56 1019.08 501.5 610.17 718.94 519.35 1000.16 401.88"/><polyline class="cls-2" points="603.15 801.26 513.53 1019.45 683.83 1427.14 504.21 1427.61 333.56 1019.08 501.5 610.17 718.94 519.35 513.53 1019.45"/><polygon class="cls-3" points="1282.08 517.67 1191.18 300.06 782.23 132.1 374.3 302.5 375.31 482.68 782.63 312.53 1282.08 517.67"/><polygon class="cls-4" points="603.15 801.26 720.62 1082.48 811.44 1299.9 1220.13 1467.76 1092.59 1595.03 683.83 1427.14 513.53 1019.45 603.15 801.26"/><polyline class="cls-5" points="1668.77 582.31 1501.36 989.9 1002.53 1198.27 1220.63 1287.85 1628.62 1117.43 1796.66 708.29 1668.77 582.31"/><polyline class="cls-6" points="1318.82 173.41 1489.05 580.96 1283.75 1080.8 1501.36 989.9 1668.77 582.31 1499.6 177.31 1318.82 173.41"/><polyline class="cls-7" points="1399.54 798.89 1489.05 580.96 1318.82 173.41 910.12 5.55 782.23 132.1 1191.18 300.06 1399.54 798.89"/><polygon class="cls-8" points="1220.63 1287.85 1002.53 1198.27 720.62 1082.48 811.44 1299.9 1220.13 1467.76 1627.77 1297.49 1628.62 1117.43 1220.63 1287.85"/></g><g id="Layer_2" data-name="Layer 2"><path class="cls-9" d="M9.3,1811.53c0-31.35,24-54,56.24-54,17.1,0,31.8,6.15,41.55,17.55l-12.6,11.85a36.87,36.87,0,0,0-28-12.3c-21.75,0-37.49,15.3-37.49,36.9s15.74,36.9,37.49,36.9A36.51,36.51,0,0,0,94.49,1836l12.6,12c-9.75,11.4-24.45,17.55-41.7,17.55C33.3,1865.53,9.3,1842.88,9.3,1811.53Z" transform="translate(-9.3 -4.64)"/><path class="cls-9" d="M114.45,1824c0-24,18-41,42.59-41,24.9,0,42.75,17,42.75,41s-17.85,41.1-42.75,41.1C132.45,1865.08,114.45,1848,114.45,1824Zm66.44,0c0-15.3-10.2-25-23.85-25-13.49,0-23.69,9.75-23.69,25s10.2,25,23.69,25C170.69,1849,180.89,1839.28,180.89,1824Z" transform="translate(-9.3 -4.64)"/><path class="cls-9" d="M351.74,1818.13V1864H333v-43.5c0-14.25-6.6-21.15-18-21.15-12.3,0-20.85,8.1-20.85,24V1864H275.39v-43.5c0-14.25-6.6-21.15-18-21.15-12.45,0-20.85,8.1-20.85,24V1864H217.79v-80.1h17.85v10.2c6-7.2,15.3-11.1,26.25-11.1,11.7,0,21.45,4.35,27,13.35,6.45-8.25,17.25-13.35,30-13.35C338.24,1783,351.74,1794,351.74,1818.13Z" transform="translate(-9.3 -4.64)"/><path class="cls-9" d="M509.69,1818.13V1864H490.94v-43.5c0-14.25-6.6-21.15-18-21.15-12.3,0-20.85,8.1-20.85,24V1864H433.34v-43.5c0-14.25-6.6-21.15-18-21.15-12.45,0-20.85,8.1-20.85,24V1864H375.74v-80.1h17.85v10.2c6-7.2,15.3-11.1,26.25-11.1,11.7,0,21.45,4.35,27,13.35,6.45-8.25,17.25-13.35,30-13.35C496.19,1783,509.69,1794,509.69,1818.13Z" transform="translate(-9.3 -4.64)"/><path class="cls-9" d="M611.24,1783.93V1864H593.39v-10.2c-6,7.35-15.45,11.25-25.8,11.25-20.55,0-34.5-11.25-34.5-35.4v-45.75h18.75v43.2c0,14.55,6.9,21.45,18.75,21.45,13,0,21.9-8.1,21.9-24.15v-40.5Z" transform="translate(-9.3 -4.64)"/><path class="cls-9" d="M714.74,1818.13V1864H696v-43.5c0-14.25-7-21.15-19-21.15-13.35,0-22.35,8.1-22.35,24.15V1864H635.84v-80.1h17.85v10.35c6.15-7.35,15.9-11.25,27.6-11.25C700.49,1783,714.74,1794,714.74,1818.13Z" transform="translate(-9.3 -4.64)"/><path class="cls-9" d="M732,1759.48c0-6.3,5.1-11.24,12-11.24s12,4.65,12,10.79c0,6.6-4.95,11.7-12,11.7C737.14,1770.73,732,1765.78,732,1759.48Zm2.55,24.45h18.75V1864H734.59Z" transform="translate(-9.3 -4.64)"/><path class="cls-9" d="M830.09,1859.68c-4.5,3.6-11.25,5.4-18,5.4-17.55,0-27.6-9.3-27.6-27v-38.55h-13.2v-15h13.2v-18.3h18.75v18.3h21.45v15H803.24v38.1c0,7.8,3.9,12,11.1,12a16.86,16.86,0,0,0,10.5-3.3Z" transform="translate(-9.3 -4.64)"/><path class="cls-9" d="M919,1783.93l-37.5,86.55c-7.35,18.15-17.55,23.7-30.9,23.7-7.95,0-16.35-2.7-21.45-7.35l7.5-13.8a20.32,20.32,0,0,0,13.8,5.55c6.6,0,10.5-3.15,14.1-11.1l1.35-3.15-35-80.4h19.5l25.2,59.25L901,1783.93Z" transform="translate(-9.3 -4.64)"/><path class="cls-9" d="M973.94,1759h19.5v88.5h54.89V1864H973.94Z" transform="translate(-9.3 -4.64)"/><path class="cls-9" d="M1136.24,1830h-62.85c2.25,11.7,12,19.2,25.95,19.2,9,0,16.05-2.85,21.75-8.7l10.05,11.55c-7.2,8.55-18.45,13-32.25,13-26.85,0-44.25-17.25-44.25-41.1s17.55-41,41.4-41c23.4,0,40.5,16.35,40.5,41.4C1136.54,1825.93,1136.39,1828.18,1136.24,1830Zm-63-12.45h45.45c-1.5-11.55-10.35-19.5-22.65-19.5C1083.89,1798,1075,1805.83,1073.24,1817.53Z" transform="translate(-9.3 -4.64)"/><path class="cls-9" d="M1234,1783.93v68c0,29.1-15.15,42.3-43.19,42.3-15,0-29.85-3.9-39-11.4l8.4-14.1c7,5.85,18.45,9.6,29.55,9.6,17.69,0,25.49-8.1,25.49-24.3v-4.2c-6.6,7.2-16,10.65-26.84,10.65-23,0-40.5-15.6-40.5-38.85s17.55-38.55,40.5-38.55c11.24,0,21.15,3.6,27.74,11.55v-10.65Zm-18.45,37.65c0-13.5-10.19-22.65-24.29-22.65s-24.45,9.15-24.45,22.65c0,13.65,10.2,23,24.45,23S1215.58,1835.23,1215.58,1821.58Z" transform="translate(-9.3 -4.64)"/><path class="cls-9" d="M1325.68,1817.08v47H1308v-9.75c-4.5,6.9-13.2,10.8-25.2,10.8-18.3,0-29.85-10-29.85-24,0-13.35,9-23.85,33.3-23.85h20.7V1816c0-11-6.6-17.4-20-17.4-9,0-18.3,3-24.3,7.95l-7.34-13.65c8.54-6.6,21-9.9,33.89-9.9C1312.33,1783,1325.68,1794,1325.68,1817.08Zm-18.75,21.9v-9.3h-19.35c-12.75,0-16.2,4.8-16.2,10.65,0,6.75,5.7,11.1,15.3,11.1C1295.83,1851.43,1303.78,1847.23,1306.93,1839Z" transform="translate(-9.3 -4.64)"/><path class="cls-9" d="M1349.68,1752.73h18.75V1864h-18.75Z" transform="translate(-9.3 -4.64)"/><path class="cls-9" d="M1428.73,1811.53c0-31.35,24-54,56.25-54,17.1,0,31.8,6.15,41.54,17.55l-12.59,11.85a36.87,36.87,0,0,0-28-12.3c-21.75,0-37.5,15.3-37.5,36.9s15.75,36.9,37.5,36.9a36.51,36.51,0,0,0,28-12.45l12.59,12c-9.74,11.4-24.44,17.55-41.69,17.55C1452.73,1865.53,1428.73,1842.88,1428.73,1811.53Z" transform="translate(-9.3 -4.64)"/><path class="cls-9" d="M1615.48,1830h-62.85c2.25,11.7,12,19.2,25.95,19.2,9,0,16.05-2.85,21.75-8.7l10.05,11.55c-7.2,8.55-18.45,13-32.25,13-26.85,0-44.25-17.25-44.25-41.1s17.55-41,41.4-41c23.4,0,40.5,16.35,40.5,41.4C1615.78,1825.93,1615.63,1828.18,1615.48,1830Zm-63-12.45h45.45c-1.5-11.55-10.35-19.5-22.65-19.5C1563.13,1798,1554.28,1805.83,1552.48,1817.53Z" transform="translate(-9.3 -4.64)"/><path class="cls-9" d="M1712.68,1818.13V1864h-18.75v-43.5c0-14.25-7-21.15-19-21.15-13.35,0-22.35,8.1-22.35,24.15V1864h-18.75v-80.1h17.85v10.35c6.15-7.35,15.9-11.25,27.6-11.25C1698.43,1783,1712.68,1794,1712.68,1818.13Z" transform="translate(-9.3 -4.64)"/><path class="cls-9" d="M1784.68,1859.68c-4.5,3.6-11.25,5.4-18,5.4-17.55,0-27.6-9.3-27.6-27v-38.55h-13.2v-15h13.2v-18.3h18.75v18.3h21.45v15h-21.45v38.1c0,7.8,3.9,12,11.1,12a16.86,16.86,0,0,0,10.5-3.3Z" transform="translate(-9.3 -4.64)"/><path class="cls-9" d="M1846.48,1783v17.85a23.8,23.8,0,0,0-4.35-.45c-14.25,0-23.25,8.4-23.25,24.75V1864h-18.75v-80.1H1818v11.7C1823.38,1787.23,1833.13,1783,1846.48,1783Z" transform="translate(-9.3 -4.64)"/><path class="cls-9" d="M1936.63,1830h-62.85c2.25,11.7,12,19.2,26,19.2,9,0,16-2.85,21.75-8.7l10,11.55c-7.2,8.55-18.45,13-32.25,13-26.85,0-44.25-17.25-44.25-41.1s17.55-41,41.4-41c23.4,0,40.5,16.35,40.5,41.4C1936.93,1825.93,1936.78,1828.18,1936.63,1830Zm-63-12.45h45.45c-1.5-11.55-10.35-19.5-22.65-19.5S1875.43,1805.83,1873.63,1817.53Z" transform="translate(-9.3 -4.64)"/><path class="cls-9" d="M1945.78,1856.08l7.2-14.25c7,4.65,17.85,8,27.9,8,11.85,0,16.8-3.3,16.8-8.85,0-15.3-49.5-.9-49.5-32.85,0-15.15,13.65-25,35.25-25,10.65,0,22.8,2.55,30,6.9l-7.2,14.25a43.85,43.85,0,0,0-23-6c-11.4,0-16.8,3.75-16.8,9,0,16.2,49.49,1.8,49.49,33.15,0,15-13.79,24.75-36.29,24.75C1966.33,1865.08,1953,1861.18,1945.78,1856.08Z" transform="translate(-9.3 -4.64)"/><path class="cls-9" d="M765.36,2016h-58.5l-12.59,28H682.72l48-105h10.95l48,105H778Zm-4.05-9-25.2-56.4-25.2,56.4Z" transform="translate(-9.3 -4.64)"/><path class="cls-9" d="M874.41,1965.13V2044h-10.2v-14.4c-5.55,9.6-15.75,15.15-28.35,15.15-20.1,0-33.3-11.25-33.3-33.9v-45.75h10.65v44.7c0,16.8,8.7,25.35,23.7,25.35,16.5,0,26.85-10.65,26.85-28.65v-41.4Z" transform="translate(-9.3 -4.64)"/><path class="cls-9" d="M893.31,2035l4.8-8.4c6.3,4.95,16.95,8.85,28,8.85,15,0,21.15-5.1,21.15-12.9,0-20.55-51.15-4.35-51.15-35.55,0-12.9,11.1-22.5,31.2-22.5,10.2,0,21.3,2.85,27.9,7.35l-4.65,8.55c-6.9-4.8-15.15-6.75-23.25-6.75-14.25,0-20.55,5.55-20.55,13,0,21.3,51.15,5.25,51.15,35.55,0,13.65-12,22.5-32.55,22.5C912.36,2044.78,899.76,2040.58,893.31,2035Z" transform="translate(-9.3 -4.64)"/><path class="cls-9" d="M1019.16,2039.23c-4.2,3.75-10.5,5.55-16.65,5.55-14.85,0-23.1-8.4-23.1-23v-47.7h-14.1v-9h14.1v-17.25h10.65v17.25h24v9h-24v47.1c0,9.3,4.8,14.4,13.65,14.4a17.62,17.62,0,0,0,11.7-4.05Z" transform="translate(-9.3 -4.64)"/><path class="cls-9" d="M1078.26,1964.53v10.35c-.9,0-1.8-.15-2.55-.15-16.5,0-26.55,10.5-26.55,29.1V2044h-10.65v-78.9h10.2v15.45C1053.66,1970.08,1063.71,1964.53,1078.26,1964.53Z" transform="translate(-9.3 -4.64)"/><path class="cls-9" d="M1156.86,1995.13V2044h-10.2v-12.3c-4.8,8.1-14.1,13-27.15,13-17.85,0-28.8-9.3-28.8-23,0-12.15,7.8-22.35,30.45-22.35h25v-4.8c0-13.5-7.65-20.85-22.35-20.85-10.2,0-19.8,3.6-26.25,9.3l-4.8-8c8-6.75,19.65-10.65,32.1-10.65C1145.31,1964.53,1156.86,1974.73,1156.86,1995.13Zm-10.65,25.2v-12.9h-24.75c-15.3,0-20.25,6-20.25,14.1,0,9.15,7.35,14.85,20,14.85C1133.16,2036.38,1142,2030.68,1146.21,2020.33Z" transform="translate(-9.3 -4.64)"/><path class="cls-9" d="M1185.81,1932.73h10.65V2044h-10.65Z" transform="translate(-9.3 -4.64)"/><path class="cls-9" d="M1223.76,1940.23a7.69,7.69,0,0,1,7.8-7.5,7.57,7.57,0,0,1,7.8,7.36,7.8,7.8,0,0,1-15.6.14Zm2.4,24.9h10.65V2044h-10.65Z" transform="translate(-9.3 -4.64)"/><path class="cls-9" d="M1326.06,1995.13V2044h-10.2v-12.3c-4.8,8.1-14.1,13-27.15,13-17.85,0-28.8-9.3-28.8-23,0-12.15,7.8-22.35,30.45-22.35h25.05v-4.8c0-13.5-7.65-20.85-22.35-20.85-10.2,0-19.8,3.6-26.25,9.3l-4.8-8c8-6.75,19.65-10.65,32.1-10.65C1314.51,1964.53,1326.06,1974.73,1326.06,1995.13Zm-10.65,25.2v-12.9h-24.75c-15.3,0-20.25,6-20.25,14.1,0,9.15,7.35,14.85,19.95,14.85C1302.36,2036.38,1311.21,2030.68,1315.41,2020.33Z" transform="translate(-9.3 -4.64)"/></g></svg>